<?xml version="1.0" standalone="no"?>
<!DOCTYPE svg PUBLIC "-//W3C//DTD SVG 20010904//EN"
 "http://www.w3.org/TR/2001/REC-SVG-20010904/DTD/svg10.dtd">
<svg version="1.0" xmlns="http://www.w3.org/2000/svg"
 width="525.000000pt" height="433.000000pt" viewBox="0 0 525.000000 433.000000"
 preserveAspectRatio="xMidYMid meet">

<g transform="translate(0.000000,433.000000) scale(0.100000,-0.100000)"
fill="#000000" stroke="none">
<path d="M855 4296 c-12 -59 1 -186 34 -336 16 -74 32 -142 36 -152 5 -11 -2
-20 -22 -30 -26 -12 -28 -18 -35 -98 -11 -122 -11 -122 22 -195 17 -36 28 -71
25 -76 -4 -5 -1 -9 4 -9 6 0 11 -4 11 -10 0 -21 -36 -8 -69 25 -19 19 -43 37
-53 41 -10 3 -18 10 -18 15 0 12 -77 89 -89 89 -5 0 -11 7 -15 15 -3 8 -14 15
-25 15 -19 0 -19 -2 -6 -41 8 -22 24 -53 35 -69 11 -15 20 -31 20 -34 0 -3 8
-15 18 -25 41 -47 42 -48 16 -61 -21 -12 -26 -11 -37 4 -23 31 -49 16 -62 -36
-7 -28 -8 -53 -3 -62 5 -9 5 -16 1 -16 -4 0 -6 -27 -5 -60 3 -48 7 -60 20 -60
15 -1 16 -2 1 -13 -19 -15 -14 -37 9 -37 13 0 12 -4 -7 -19 -22 -17 -22 -18
-5 -26 17 -7 17 -8 -5 -14 -30 -8 -40 -31 -14 -31 15 0 16 -2 3 -10 -13 -9
-13 -11 0 -20 11 -7 7 -10 -17 -10 -18 0 -33 -4 -33 -10 0 -5 3 -9 8 -9 4 1
18 1 31 0 24 -1 24 -1 5 -16 -13 -10 -14 -14 -5 -15 11 0 11 -3 0 -17 -7 -10
-9 -15 -5 -11 5 5 15 -1 23 -12 11 -16 11 -23 1 -40 -7 -11 -20 -20 -30 -20
-9 0 -20 -5 -23 -10 -8 -13 -26 -3 -24 13 4 30 -2 45 -18 43 -13 -1 -18 6 -17
21 0 12 -6 25 -15 28 -8 3 -13 3 -9 0 3 -4 0 -18 -8 -33 -15 -30 -1 -59 16
-32 5 8 10 11 10 6 0 -5 -11 -19 -25 -32 -41 -38 -32 -44 62 -44 47 0 84 -3
80 -6 -3 -4 -42 -7 -86 -8 -49 -1 -85 -6 -93 -14 -10 -10 -2 -11 39 -8 28 2
77 0 109 -4 l59 -7 -75 -3 c-41 -1 -103 -1 -137 0 -71 2 -80 -10 -31 -40 25
-15 53 -20 113 -21 l80 -2 -67 -7 c-53 -5 -72 -12 -88 -30 -11 -13 -20 -28
-20 -34 0 -6 -6 -23 -14 -37 -13 -26 -12 -27 48 -62 33 -19 89 -49 123 -66 86
-43 125 -83 117 -117 -8 -31 -11 -55 -13 -101 0 -17 -8 -38 -16 -47 -8 -8 -15
-19 -15 -25 0 -6 -4 -11 -9 -11 -5 0 -15 -16 -21 -35 -8 -25 -19 -37 -38 -41
-45 -10 -52 -13 -52 -24 0 -5 10 -10 23 -10 12 0 56 -8 97 -18 102 -24 211
-13 295 29 126 63 186 99 215 132 29 33 30 37 20 87 -6 29 -10 69 -10 89 0 21
-4 41 -9 47 -11 12 -35 104 -34 126 1 10 -2 20 -8 23 -5 4 -9 15 -9 27 0 14
-5 18 -15 14 -8 -3 -15 -1 -15 5 0 6 -5 7 -10 4 -8 -5 -8 -11 0 -20 13 -15 7
-58 -8 -63 -7 -2 -10 3 -6 11 3 8 1 18 -5 22 -12 7 -14 -1 -11 -64 1 -33 -1
-42 -12 -36 -7 3 -5 0 5 -8 21 -17 23 -41 2 -33 -8 3 -15 1 -15 -3 0 -5 5 -11
11 -13 7 -2 7 -12 0 -31 -6 -16 -15 -26 -20 -23 -5 4 -11 0 -14 -6 -4 -13 -22
80 -18 96 1 7 -11 166 -44 556 -3 30 -7 78 -10 105 -9 81 -17 198 -16 228 1
15 -6 41 -14 58 -15 28 -15 30 2 27 20 -3 22 13 44 362 22 341 22 407 3 487
-17 74 -28 89 -37 54 -8 -32 -39 -18 -58 25 l-17 39 -7 -39z m-35 -1036 c0 -5
-4 -10 -9 -10 -6 0 -13 5 -16 10 -3 6 1 10 9 10 9 0 16 -4 16 -10z m-280 -705
c-7 -9 -15 -13 -18 -10 -3 2 1 11 8 20 7 9 15 13 18 10 3 -2 -1 -11 -8 -20z"/>
<path d="M997 3853 c1 -263 4 -500 6 -528 8 -93 24 -135 52 -135 8 0 15 -4 17
-9 2 -5 23 -18 47 -30 35 -16 47 -18 53 -9 4 8 8 9 8 2 0 -6 7 -11 15 -11 8 0
15 5 16 11 0 6 4 32 8 58 5 32 4 49 -3 52 -7 2 -4 9 6 17 10 8 24 45 33 88 8
40 18 77 21 82 3 5 0 17 -5 27 -11 21 22 167 44 192 7 8 16 25 19 38 4 12 14
22 23 22 19 0 15 -32 -22 -185 -13 -55 -33 -138 -44 -185 -62 -262 -85 -518
-59 -643 13 -57 13 -69 1 -73 -7 -2 -20 -6 -28 -9 -9 -2 -18 -13 -21 -22 -3
-10 -9 -25 -14 -34 -11 -21 10 -63 34 -67 10 -2 34 -1 53 3 32 6 34 8 28 36
-5 22 -3 29 9 29 22 0 20 19 -4 38 -31 25 -42 83 -43 239 -1 102 2 146 11 155
9 9 12 9 13 0 1 -7 2 -15 3 -19 1 -5 6 -26 11 -48 15 -71 24 -96 40 -115 14
-15 15 -19 15 -45 0 -30 38 -55 85 -55 l45 0 0 39 c0 36 -3 40 -27 44 l-28 4
30 2 30 1 -22 18 c-20 16 -21 19 -6 72 13 47 18 67 22 101 1 3 12 4 25 2 13
-3 32 0 43 6 13 7 14 10 4 11 -11 0 -9 4 4 14 14 10 25 11 38 4 10 -5 26 -7
35 -5 13 3 11 7 -10 17 -48 23 -34 37 28 32 41 -3 55 -2 50 7 -5 7 1 11 16 11
18 0 20 -2 8 -10 -11 -7 -3 -9 28 -8 23 1 42 3 42 4 0 16 -67 25 -217 30 -98
3 -180 8 -182 10 -2 2 52 4 120 5 68 0 152 1 187 2 34 1 64 -2 66 -8 3 -5 5 2
5 18 1 15 5 27 9 27 5 0 7 -15 6 -32 -3 -27 0 -23 12 16 12 38 13 50 4 56 -7
4 -9 13 -6 19 4 6 12 8 18 5 8 -5 9 3 5 25 -4 19 -3 30 3 26 5 -3 12 11 15 32
3 21 11 60 17 88 6 28 7 50 2 52 -37 13 -61 33 -73 61 -13 29 -19 32 -59 32
-39 0 -50 5 -82 39 -85 89 -51 225 76 306 29 19 72 39 96 46 55 16 55 15 32
40 -31 35 -70 49 -131 49 -41 0 -54 3 -43 10 23 15 107 12 139 -5 16 -8 40
-28 55 -46 25 -30 30 -31 118 -35 141 -6 183 -22 255 -96 33 -35 71 -81 85
-103 47 -75 46 -204 -3 -239 -11 -7 -30 -33 -42 -56 -26 -51 -74 -80 -130 -80
-34 0 -38 -3 -35 -22 5 -40 -28 -33 -58 13 -39 57 -82 99 -103 99 -14 0 -14
-2 -1 -10 12 -8 9 -10 -13 -10 -33 0 -42 -18 -56 -110 -6 -36 -16 -85 -21
-110 -6 -25 -16 -71 -21 -103 -10 -55 -9 -59 18 -92 16 -19 41 -36 59 -40 23
-5 30 -11 27 -23 -2 -11 18 -39 56 -76 53 -53 61 -57 67 -40 10 26 25 35 49
28 l20 -6 -20 16 c-19 14 -19 15 9 8 16 -5 32 -14 34 -21 3 -8 0 -11 -7 -7 -6
4 -11 3 -11 -3 0 -5 -14 -8 -30 -6 l-31 4 23 -25 c26 -27 53 -32 44 -8 -3 8
-2 12 4 9 22 -14 102 165 119 272 8 46 24 91 44 125 31 52 43 61 154 113 57
27 134 79 144 97 18 33 1 135 -27 165 -28 30 -34 93 -9 93 11 0 15 12 15 50 0
59 17 97 60 133 94 80 223 10 237 -127 4 -40 10 -56 21 -56 23 0 8 -67 -23
-95 -20 -19 -25 -34 -27 -77 -3 -100 2 -110 77 -147 25 -12 45 -26 45 -31 0
-4 12 -11 28 -15 59 -15 132 -58 132 -79 0 -5 8 -18 17 -29 17 -18 17 -19 0
-28 -22 -13 -13 -29 16 -30 18 0 15 -3 -13 -17 -19 -9 -36 -17 -37 -17 -2 -1
18 -64 23 -73 1 -2 12 2 25 8 19 11 21 10 16 -4 -8 -22 2 -46 17 -40 7 3 19
-16 30 -48 10 -29 23 -57 27 -63 5 -5 9 -17 9 -27 0 -10 5 -18 10 -18 6 0 10
-6 10 -12 0 -7 7 -26 16 -43 51 -94 63 -125 58 -139 -9 -25 1 -19 45 23 53 51
120 84 138 69 11 -9 12 -1 7 46 l-7 56 30 0 c32 0 43 -17 43 -66 0 -15 10 -24
39 -32 21 -7 50 -22 65 -33 32 -25 79 -97 79 -119 0 -8 4 -18 9 -21 13 -9 22
-117 11 -131 -24 -31 -23 -49 4 -59 19 -7 24 -12 14 -18 -9 -6 -3 -12 18 -21
34 -14 43 -31 12 -23 -24 6 -61 -13 -61 -32 0 -7 8 -16 18 -18 10 -3 6 -5 -10
-6 -17 -1 -28 -7 -28 -15 0 -23 -43 -64 -83 -81 -74 -31 -143 13 -140 89 1 39
-1 44 -35 62 -20 10 -47 30 -60 44 l-24 25 6 -30 c11 -51 14 -68 29 -140 23
-104 1 -234 -41 -250 -19 -7 -34 14 -26 35 13 33 15 77 7 109 -11 42 -33 53
-33 18 0 -14 -3 -32 -6 -41 -9 -24 -34 -19 -35 7 0 12 -2 40 -4 62 -3 22 2 64
10 93 17 65 15 70 -74 206 -64 99 -121 212 -121 240 0 8 5 16 11 18 8 3 5 19
-9 50 -27 61 -37 108 -23 108 6 0 11 5 11 11 0 6 -5 7 -12 2 -7 -4 -19 -8 -26
-9 -25 -4 -27 -15 -8 -30 11 -8 16 -14 12 -14 -4 0 2 -16 15 -36 12 -21 17
-35 10 -33 -7 3 -25 28 -41 56 l-28 51 24 11 c31 14 31 36 -1 39 -26 2 -34
-13 -12 -21 7 -3 5 -6 -5 -6 -10 -1 -18 7 -19 17 -1 9 -10 -10 -21 -43 -24
-70 -38 -271 -25 -351 7 -43 6 -55 -9 -72 -10 -12 -22 -18 -27 -15 -6 3 -7 1
-3 -5 11 -18 46 -14 46 5 0 29 10 8 19 -40 5 -27 5 -47 0 -47 -5 0 -9 -7 -9
-15 0 -8 5 -14 11 -13 6 2 13 -14 14 -37 2 -26 1 -32 -3 -17 -10 34 -27 26
-24 -11 9 -106 8 -136 -5 -141 -9 -4 -12 -1 -7 7 5 9 4 9 -5 1 -16 -15 -23
-74 -8 -74 9 0 9 -2 1 -8 -15 -9 -22 -74 -30 -269 -5 -119 -4 -163 5 -163 6 0
11 9 11 20 0 11 9 29 21 41 11 11 18 26 16 33 -3 7 1 13 7 13 10 0 10 -16 -1
-76 -12 -61 -13 -99 -4 -195 6 -65 14 -123 19 -130 12 -16 1 -185 -18 -265
-12 -48 -5 -66 14 -39 10 13 15 15 24 6 7 -7 12 -18 12 -24 0 -7 5 -16 11 -20
8 -5 10 7 6 39 -5 38 -3 45 9 40 8 -3 14 -10 13 -17 -1 -6 -1 -19 0 -29 1 -17
2 -17 17 -2 9 8 29 22 44 30 19 10 31 26 36 47 7 32 7 32 14 8 4 -14 6 -43 4
-65 l-2 -40 14 34 c8 18 17 31 19 29 6 -6 -18 -82 -28 -89 -5 -4 -11 -34 -13
-67 -4 -59 -4 -62 25 -77 17 -8 37 -15 46 -15 8 0 15 -4 15 -8 0 -14 42 -29
131 -47 46 -9 111 -26 143 -38 54 -19 57 -22 35 -30 -13 -5 -37 -15 -52 -23
-16 -8 -36 -14 -45 -14 -13 0 -11 -5 8 -20 14 -11 30 -20 37 -20 7 0 28 -7 47
-17 29 -13 33 -19 26 -34 -13 -23 -40 -28 -180 -34 -82 -4 -126 -11 -155 -24
-22 -10 -53 -22 -68 -25 -24 -6 -27 -9 -17 -21 10 -12 7 -17 -16 -25 -16 -6
-38 -14 -49 -19 -23 -9 219 -20 500 -22 105 -1 201 -5 215 -9 17 -6 1 -8 -50
-9 -181 -3 -298 -14 -293 -27 4 -11 -6 -14 -40 -14 -61 0 -81 -8 -66 -26 6 -8
18 -14 26 -14 11 0 14 -7 9 -22 -3 -13 -6 -26 -6 -30 0 -5 -5 -8 -11 -8 -7 0
-17 -7 -24 -16 -10 -14 -15 -15 -35 -4 -18 9 -25 10 -28 1 -2 -7 -31 -11 -78
-11 -69 0 -75 2 -91 27 -10 16 -23 32 -30 36 -7 4 -13 17 -13 28 0 31 -35 20
-36 -11 0 -38 -13 -52 -42 -47 -18 3 -32 -2 -50 -20 -27 -27 -103 -63 -133
-63 -12 0 -21 9 -25 25 -14 55 28 125 76 125 36 0 61 10 55 21 -3 4 -121 6
-263 2 -247 -6 -476 2 -468 15 2 4 -38 8 -90 10 -99 3 -110 -3 -78 -39 9 -10
14 -25 11 -32 -6 -16 -53 -18 -75 -4 -7 5 -14 3 -18 -6 -7 -18 48 -142 69
-153 8 -5 30 -21 48 -36 19 -14 55 -43 82 -62 l47 -36 1195 0 1195 0 0 38 c-1
142 -51 395 -76 385 -9 -3 -14 2 -14 16 0 11 -31 122 -69 245 -79 255 -100
347 -41 176 22 -63 37 -101 34 -85 -10 53 -66 290 -69 293 -1 2 -6 -13 -9 -33
-6 -28 -11 -35 -29 -34 -29 2 -86 16 -69 18 7 0 10 6 7 11 -3 6 -2 10 4 10 5
0 11 -5 13 -12 3 -7 11 -9 24 -4 19 8 19 8 0 15 -17 7 -18 8 -3 14 9 3 17 2
17 -3 0 -6 7 -10 15 -10 8 0 14 3 14 8 -4 21 2 43 10 38 5 -3 13 13 19 37 7
26 8 43 2 45 -15 5 -12 22 4 22 11 0 36 46 36 66 0 2 -18 23 -40 45 -54 56
-51 64 4 10 l43 -42 11 43 c6 24 16 90 22 148 17 155 52 322 70 331 8 4 69 15
135 24 224 33 389 81 503 149 l52 31 0 512 c0 294 -4 514 -9 517 -8 5 -63 101
-186 321 -56 101 -65 126 -75 207 -14 127 -38 286 -55 360 -18 82 -81 259
-125 351 l-32 67 -1886 0 -1887 0 2 -477z m873 287 c8 -5 11 -10 5 -10 -5 0
-17 5 -25 10 -8 5 -10 10 -5 10 6 0 17 -5 25 -10z m-330 -163 c0 -2 -10 -12
-22 -23 l-23 -19 19 23 c18 21 26 27 26 19z m985 -133 c1 -13 -5 -24 -12 -24
-14 0 -17 19 -7 45 8 21 19 10 19 -21z m1409 -146 c-11 -17 37 -49 68 -46 26
2 34 10 44 38 8 23 13 28 13 15 1 -26 34 -55 64 -56 20 0 19 -2 -6 -11 -19 -7
-30 -19 -34 -39 -6 -30 -23 -40 -23 -13 0 26 -26 44 -63 44 -36 0 -47 -12 -47
-51 0 -10 -4 -19 -10 -19 -5 0 -10 8 -10 18 0 30 -34 54 -71 50 -28 -3 -34 -8
-42 -38 l-10 -35 -15 38 c-13 33 -18 37 -51 37 -41 0 -61 -14 -61 -42 0 -10
-4 -18 -10 -18 -5 0 -10 11 -10 24 0 17 -9 28 -32 40 -27 13 -29 16 -12 16 23
0 34 17 34 51 0 11 5 17 10 14 6 -3 10 -21 10 -38 0 -24 3 -28 10 -17 6 10 10
11 10 3 0 -8 15 -13 39 -13 40 0 51 11 51 51 0 10 5 19 10 19 6 0 10 -17 10
-37 0 -30 3 -35 11 -23 8 11 12 12 16 3 6 -16 55 -17 71 -1 7 7 12 22 12 33 0
12 3 25 7 28 8 9 24 -14 17 -25z m56 -124 c0 -8 -19 -13 -24 -6 -3 5 1 9 9 9
8 0 15 -2 15 -3z m-490 -32 c0 -4 -5 -13 -12 -20 -9 -9 -5 -12 18 -12 18 0 38
8 48 19 19 21 58 17 49 -4 -2 -8 -10 -12 -18 -9 -7 3 -15 -2 -18 -10 -4 -10
-1 -13 7 -10 7 3 16 -2 19 -10 15 -38 57 -4 57 45 0 34 10 17 13 -22 2 -32 4
-34 45 -37 47 -4 72 10 72 39 0 11 5 19 10 19 6 0 10 -11 10 -24 0 -22 5 -24
50 -28 51 -3 60 3 60 42 0 18 22 22 37 5 4 -4 2 -5 -5 0 -10 5 -13 1 -10 -16
3 -21 10 -25 56 -29 52 -6 53 -5 61 25 9 30 11 29 25 -19 3 -9 21 -16 43 -19
l38 -4 -43 -1 c-34 -2 -44 -7 -52 -24 l-9 -23 -7 23 c-5 19 -13 22 -56 22 -41
0 -51 -3 -55 -20 -3 -11 -9 -20 -14 -20 -5 0 -9 9 -9 20 0 18 -7 20 -54 20
-47 0 -55 -3 -61 -22 l-8 -23 -4 23 c-4 20 -10 22 -60 22 -46 0 -56 -3 -60
-20 -3 -11 -11 -20 -18 -20 -17 0 -28 -30 -15 -45 6 -7 6 -23 1 -43 -5 -17 -7
-33 -3 -36 3 -3 0 -6 -7 -6 -7 0 -9 -4 -6 -10 3 -5 2 -17 -3 -26 -7 -12 -9 -9
-10 14 0 17 -6 41 -13 53 -9 17 -9 24 0 27 6 2 11 11 11 19 0 10 -6 13 -17 9
-10 -4 -14 -4 -11 0 8 8 -9 26 -40 43 -23 12 -47 7 -37 -9 3 -5 -4 -11 -15
-15 -11 -4 -18 -11 -15 -16 4 -5 0 -9 -8 -9 -8 0 -21 -8 -28 -17 -12 -16 -12
-17 1 -6 13 10 16 9 16 -7 0 -10 -4 -16 -8 -14 -4 3 -8 1 -8 -4 0 -6 -7 -13
-16 -16 -15 -6 -15 -4 -3 11 7 10 2 8 -12 -5 -14 -12 -28 -20 -31 -17 -3 3
-11 -8 -18 -25 -9 -22 -22 -33 -44 -37 -31 -7 -31 -7 -6 -14 25 -7 25 -7 2 -8
-19 -1 -22 -5 -17 -21 9 -30 -2 -24 -20 10 -18 34 -19 80 -4 149 13 61 62 111
110 111 34 0 79 26 79 45 0 16 27 45 41 45 5 0 9 -4 9 -8z m-1725 -122 c3 -5
1 -10 -4 -10 -6 0 -11 5 -11 10 0 6 2 10 4 10 3 0 8 -4 11 -10z m0 -100 c3 -5
1 -10 -4 -10 -6 0 -11 5 -11 10 0 6 2 10 4 10 3 0 8 -4 11 -10z m-180 -18 c12
-9 24 -25 27 -34 5 -13 1 -16 -19 -15 -14 1 -28 -4 -30 -10 -3 -9 8 -13 37
-13 37 0 41 2 35 21 -6 18 -5 19 14 7 12 -7 21 -23 21 -36 0 -13 -4 -21 -9
-18 -5 4 -7 -3 -4 -14 5 -17 1 -19 -26 -16 -17 2 -42 15 -56 29 -16 15 -33 23
-44 20 -29 -8 -33 13 -11 57 22 44 35 48 65 22z m175 -112 c0 -5 -4 -10 -10
-10 -5 0 -10 -8 -10 -17 0 -13 -3 -14 -11 -6 -7 7 -9 19 -6 27 7 17 37 22 37
6z m1540 -44 c0 -8 5 -16 12 -18 8 -3 9 -6 1 -11 -5 -3 -15 5 -21 18 -7 15 -8
25 -2 25 6 0 10 -6 10 -14z m-120 -14 c0 -14 -37 -30 -51 -22 -10 7 -8 11 11
19 31 12 40 13 40 3z m-1043 -179 c0 -21 -2 -29 -4 -19 -4 15 -7 16 -14 5 -13
-21 -12 7 1 32 15 27 17 24 17 -18z m1703 7 c0 -5 -2 -10 -4 -10 -3 0 -8 5
-11 10 -3 6 -1 10 4 10 6 0 11 -4 11 -10z m-2410 -34 c0 -3 -4 -8 -10 -11 -5
-3 -10 -1 -10 4 0 6 5 11 10 11 6 0 10 -2 10 -4z m-37 -123 c-7 -2 -21 -2 -30
0 -10 3 -4 5 12 5 17 0 24 -2 18 -5z m1747 -29 c0 -8 -5 -12 -10 -9 -6 4 -8
11 -5 16 9 14 15 11 15 -7z m1080 -268 c64 -11 88 -19 102 -36 24 -30 23 -65
-3 -91 -17 -17 -29 -20 -63 -16 -65 9 -74 12 -93 29 -10 9 -33 16 -52 16 -52
-2 -67 39 -30 86 24 30 26 30 139 12z m361 -153 c110 -41 130 -56 127 -98 -1
-18 -6 -31 -10 -29 -4 3 -8 -2 -8 -10 0 -9 -9 -16 -20 -16 -11 0 -20 -5 -20
-10 0 -6 -12 -16 -27 -22 l-28 -11 30 -8 c30 -7 30 -8 -5 -5 -43 2 -206 82
-226 110 -17 25 -18 75 -1 97 36 46 71 46 188 2z m-726 -53 c3 -5 -1 -10 -10
-10 -9 0 -13 5 -10 10 3 6 8 10 10 10 2 0 7 -4 10 -10z m345 -65 c41 -21 57
-78 37 -127 -18 -43 -62 -77 -79 -60 -7 7 -4 13 10 21 10 6 22 8 25 5 3 -3 8
1 13 8 4 7 3 9 -1 5 -5 -4 -15 3 -22 15 l-14 23 6 -22 c5 -17 2 -23 -10 -23
-13 0 -16 7 -13 30 5 33 -6 41 -16 13 -12 -33 -33 -63 -39 -56 -11 10 -8 43 3
43 6 0 10 5 10 10 0 6 -9 10 -20 10 -11 0 -20 4 -20 9 0 5 -9 7 -20 4 -11 -3
-20 -1 -20 4 0 5 -14 8 -31 5 -20 -3 -29 -9 -25 -18 3 -8 1 -14 -3 -14 -5 0
-12 -7 -15 -16 -3 -8 -2 -12 4 -9 15 9 12 -6 -5 -25 -16 -18 -10 -85 6 -74 5
3 7 10 4 15 -7 11 8 12 19 2 4 -5 13 -8 18 -8 29 0 14 -24 -24 -40 -24 -9 -51
-23 -60 -32 -9 -8 -25 -12 -35 -9 -25 8 -50 -12 -58 -46 -7 -26 -6 -26 44 -24
28 1 56 -1 63 -6 12 -7 -45 -13 -80 -9 -7 1 -20 -6 -29 -15 -16 -16 -16 -16 5
-10 16 6 24 3 28 -11 3 -10 11 -28 16 -40 8 -16 8 -26 -1 -36 -9 -12 -8 -16 3
-20 8 -3 17 -1 19 6 2 7 7 9 11 5 4 -3 2 -16 -4 -28 -9 -17 -14 -19 -20 -10
-12 20 -60 15 -83 -9 -12 -11 -16 -21 -10 -21 7 0 15 5 18 10 10 16 35 12 35
-6 0 -9 -9 -18 -20 -21 -11 -3 -17 -9 -14 -15 3 -5 0 -15 -6 -23 -10 -12 -9
-15 5 -15 13 0 16 -5 10 -22 -10 -31 -11 -57 -2 -98 5 -24 4 -30 -3 -20 -6 10
-10 11 -10 3 0 -7 -8 -13 -17 -14 -11 0 -13 -3 -5 -6 18 -7 15 -23 -5 -23 -18
1 -125 48 -111 49 10 1 -49 132 -70 154 -15 17 -15 17 4 11 10 -4 16 -4 12 1
-7 7 -24 10 -72 14 -14 1 -16 4 -7 14 6 8 7 17 3 22 -4 4 5 0 20 -9 l27 -18
-2 31 c-1 18 -8 31 -15 31 -7 0 -10 5 -7 10 4 6 1 18 -7 27 -7 9 -8 14 -2 10
16 -10 11 36 -6 50 -13 11 -12 12 8 10 12 -2 28 -9 34 -15 22 -22 37 -14 29
16 -6 22 -15 28 -47 33 -38 6 -39 6 -6 8 33 1 34 2 28 39 -5 31 -1 42 20 66
18 20 28 26 33 17 10 -15 41 -3 41 15 0 13 12 18 33 15 4 0 7 14 7 31 1 49 34
114 67 131 16 9 62 22 103 31 72 15 76 15 91 -3 18 -21 35 -16 40 13 8 38 125
59 179 31z m-1153 -17 c-3 -8 -6 -5 -6 6 -1 11 2 17 5 13 3 -3 4 -12 1 -19z
m-30 -130 c-3 -7 -5 -2 -5 12 0 14 2 19 5 13 2 -7 2 -19 0 -25z m678 -48 c-3
-5 -11 -10 -16 -10 -6 0 -7 5 -4 10 3 6 11 10 16 10 6 0 7 -4 4 -10z m-682
-27 c-7 -2 -19 -2 -25 0 -7 3 -2 5 12 5 14 0 19 -2 13 -5z m897 -123 c0 -11
-4 -20 -9 -20 -14 0 -23 18 -16 30 10 17 25 11 25 -10z m-877 -47 c-7 -2 -19
-2 -25 0 -7 3 -2 5 12 5 14 0 19 -2 13 -5z m900 -53 c-13 -14 -20 -17 -30 -8
-10 8 -13 7 -13 -3 0 -9 -3 -10 -11 -2 -16 16 -1 35 21 28 10 -3 21 -1 25 5 3
6 10 8 15 5 5 -3 2 -14 -7 -25z m-906 14 c-3 -3 -12 -4 -19 -1 -8 3 -5 6 6 6
11 1 17 -2 13 -5z m993 -29 c0 -7 7 -18 15 -25 8 -7 15 -19 15 -27 0 -12 -2
-12 -15 1 -8 8 -15 19 -15 24 0 5 -12 14 -26 20 -14 7 -23 16 -20 21 8 13 46
1 46 -14z m105 -15 c-5 -8 -11 -8 -21 1 -12 10 -12 14 -2 20 16 10 33 -5 23
-21z m0 -41 c55 -57 38 -57 -23 0 -29 27 -44 47 -34 44 10 -2 36 -22 57 -44z
m-214 18 c-13 -13 -26 -3 -16 12 3 6 11 8 17 5 6 -4 6 -10 -1 -17z m81 -32
c-5 -27 -9 -30 -26 -16 -18 15 -9 43 13 39 10 -2 15 -11 13 -23z m103 -25 c-4
-6 -12 -5 -21 5 -9 8 -12 19 -9 25 4 6 12 5 21 -5 9 -8 12 -19 9 -25z m-165
10 c0 -5 -4 -10 -10 -10 -5 0 -10 5 -10 10 0 6 5 10 10 10 6 0 10 -4 10 -10z
m-55 -28 c0 -18 -20 -15 -23 4 -3 10 1 15 10 12 7 -3 13 -10 13 -16z m35 -23
c0 -5 -7 -9 -15 -9 -15 0 -20 12 -9 23 8 8 24 -1 24 -14z m244 -5 c3 -8 -1
-14 -10 -14 -8 0 -12 5 -9 10 3 6 -1 10 -10 10 -9 0 -14 4 -10 10 7 12 32 2
39 -16z m-106 7 c26 -5 49 -17 58 -30 9 -12 19 -19 23 -17 4 3 8 -1 8 -9 0
-21 -7 -19 -39 12 -21 20 -40 27 -83 31 -30 2 -52 8 -49 13 6 11 25 11 82 0z
m-198 -23 c0 -16 -3 -19 -11 -11 -6 6 -8 16 -5 22 11 17 16 13 16 -11z m520 6
c0 -17 -22 -14 -28 4 -2 7 3 12 12 12 9 0 16 -7 16 -16z m-490 -34 c0 -5 -4
-10 -10 -10 -5 0 -10 5 -10 10 0 6 5 10 10 10 6 0 10 -4 10 -10z m156 -69 c-3
-5 4 -11 15 -14 12 -3 19 -11 17 -18 -7 -21 -82 -69 -118 -74 -27 -4 -30 -3
-15 4 11 5 16 10 10 10 -5 1 2 12 18 25 15 13 27 28 27 35 0 6 6 11 14 11 8 0
16 7 20 15 3 8 8 15 11 15 4 0 4 -4 1 -9z m44 -1 c8 -5 11 -10 5 -10 -5 0 -17
5 -25 10 -8 5 -10 10 -5 10 6 0 17 -5 25 -10z m-439 -47 c13 -16 12 -17 -3 -4
-17 13 -22 21 -14 21 2 0 10 -8 17 -17z m251 -149 c14 -16 27 -24 39 -21 11 3
16 1 13 -5 -3 -5 2 -9 12 -8 34 4 44 0 44 -15 0 -10 11 -15 35 -15 19 0 35 -5
35 -11 0 -7 -15 -10 -40 -7 -44 4 -49 -2 -23 -27 20 -21 27 -106 10 -118 -9
-6 -9 -10 -1 -13 7 -3 9 -14 6 -26 -3 -13 -1 -19 5 -15 6 4 16 0 23 -8 10 -12
10 -15 -1 -15 -11 0 -11 -2 1 -10 13 -8 12 -10 -2 -10 -10 0 -18 6 -18 13 0 9
-2 9 -8 1 -5 -8 -85 -14 -246 -19 -231 -7 -238 -7 -228 11 18 33 143 164 152
159 4 -3 13 2 20 11 7 8 18 13 25 11 6 -3 20 2 30 10 20 14 20 15 -2 33 -13
10 -23 22 -23 26 0 17 85 94 103 94 11 0 28 -12 39 -26z m-277 6 c3 -6 -4 -10
-17 -10 -18 0 -20 2 -8 10 19 12 18 12 25 0z m-255 -74 c0 -3 -4 -8 -10 -11
-5 -3 -10 -1 -10 4 0 6 5 11 10 11 6 0 10 -2 10 -4z m870 -76 c0 -5 -4 -10
-10 -10 -5 0 -10 5 -10 10 0 6 5 10 10 10 6 0 10 -4 10 -10z m-1060 -24 c0 -2
-7 -7 -16 -10 -8 -3 -12 -2 -9 4 6 10 25 14 25 6z m-80 -17 c0 -4 -7 -9 -15
-13 -9 -3 -15 0 -15 8 0 7 7 13 15 13 8 0 15 -4 15 -8z m30 7 c0 -3 -4 -8 -10
-11 -5 -3 -10 -1 -10 4 0 6 5 11 10 11 6 0 10 -2 10 -4z m2 -68 c-7 -7 -12 -8
-12 -2 0 14 12 26 19 19 2 -3 -1 -11 -7 -17z m1373 -683 c0 -5 -15 -11 -32
-13 -32 -3 -45 11 -20 22 19 8 52 2 52 -9z m-885 -71 c0 -1 -14 -11 -32 -22
-24 -16 -37 -18 -51 -11 -29 16 -3 38 44 36 21 -1 39 -2 39 -3z m-1410 -24 c8
-5 11 -12 7 -16 -4 -4 -15 0 -24 9 -18 18 -8 23 17 7z m1281 -24 c-10 -11 -8
-15 6 -19 14 -4 13 -5 -4 -6 -13 0 -23 1 -23 3 0 14 14 36 22 36 6 0 6 -6 -1
-14z"/>
<path d="M3514 3493 c-24 -4 -40 -42 -21 -47 16 -4 68 -22 91 -31 16 -7 17 -5
12 16 -5 19 -3 18 8 -5 11 -24 14 -26 20 -10 4 10 2 21 -6 25 -7 4 -26 19 -43
33 -16 14 -32 25 -35 25 -3 -1 -15 -4 -26 -6z"/>
<path d="M3447 3466 c-9 -10 -14 -22 -11 -28 8 -13 38 16 32 32 -3 9 -9 8 -21
-4z"/>
<path d="M3426 3405 c-3 -9 -11 -13 -17 -9 -8 4 -9 3 -5 -4 4 -7 2 -12 -3 -12
-6 0 -11 -4 -11 -10 0 -5 4 -10 9 -10 11 0 44 50 38 56 -2 3 -7 -2 -11 -11z"/>
<path d="M3668 1949 c-6 -4 -5 -21 3 -48 14 -46 29 -38 23 13 -3 29 -2 30 11
12 14 -19 15 -19 21 0 4 10 9 22 10 25 5 8 -54 6 -68 -2z"/>
<path d="M3631 1744 c-1 -18 -6 -20 -28 -16 -16 2 -24 1 -20 -4 9 -10 67 -15
66 -6 0 4 -4 16 -9 27 -8 20 -9 20 -9 -1z"/>
<path d="M3615 1680 c13 -14 13 -19 3 -23 -7 -3 -3 -4 10 -4 21 1 33 27 11 27
-5 0 -8 4 -5 8 2 4 -5 9 -16 9 -19 2 -19 1 -3 -17z"/>
<path d="M3640 1620 c20 -13 33 -13 25 0 -3 6 -14 10 -23 10 -15 0 -15 -2 -2
-10z"/>
<path d="M3680 1535 c7 -8 19 -15 27 -15 13 0 13 3 3 15 -7 8 -19 15 -27 15
-13 0 -13 -3 -3 -15z"/>
<path d="M4017 1151 c-4 -17 -3 -21 5 -13 5 5 8 16 6 23 -3 8 -7 3 -11 -10z"/>
<path d="M1986 3895 c-3 -8 -1 -15 4 -15 6 0 10 7 10 15 0 8 -2 15 -4 15 -2 0
-6 -7 -10 -15z"/>
<path d="M1897 3847 c-11 -29 -9 -43 4 -30 6 6 9 19 7 29 -3 18 -4 18 -11 1z"/>
<path d="M1980 3830 c-12 -22 -6 -40 12 -40 6 0 8 3 5 6 -3 4 -2 15 3 25 6 11
7 20 1 24 -6 3 -15 -4 -21 -15z"/>
<path d="M2802 3475 c-15 -32 -15 -35 -2 -35 6 0 10 10 11 23 l0 22 9 -22 c14
-34 21 -28 9 7 -6 17 -12 30 -13 30 -2 0 -8 -11 -14 -25z"/>
<path d="M2801 3414 c0 -11 3 -14 6 -6 3 7 2 16 -1 19 -3 4 -6 -2 -5 -13z"/>
<path d="M2865 3400 c3 -5 11 -10 16 -10 6 0 7 5 4 10 -3 6 -11 10 -16 10 -6
0 -7 -4 -4 -10z"/>
<path d="M2800 3374 c0 -8 5 -12 10 -9 6 4 8 11 5 16 -9 14 -15 11 -15 -7z"/>
<path d="M2866 3365 c4 -8 8 -15 10 -15 2 0 4 7 4 15 0 8 -4 15 -10 15 -5 0
-7 -7 -4 -15z"/>
<path d="M3070 3160 c0 -5 5 -10 10 -10 6 0 10 5 10 10 0 6 -4 10 -10 10 -5 0
-10 -4 -10 -10z"/>
<path d="M3084 3101 c4 -28 3 -40 -4 -36 -5 3 -10 17 -10 31 0 13 -5 24 -11
24 -7 0 -9 -12 -5 -36 4 -21 3 -41 -4 -49 -6 -7 -8 -25 -4 -39 8 -31 42 -35
67 -8 23 26 22 46 -3 39 -23 -6 -27 8 -5 21 12 6 14 16 7 47 -11 56 -37 61
-28 6z m-14 -91 c0 -5 -4 -10 -10 -10 -5 0 -10 5 -10 10 0 6 5 10 10 10 6 0
10 -4 10 -10z"/>
<path d="M437 3113 c-9 -8 12 -33 27 -33 7 0 29 -9 51 -20 43 -22 65 -25 65
-11 0 6 -15 11 -32 13 -20 2 -32 8 -30 16 1 6 -5 12 -14 12 -8 0 -22 7 -30 15
-17 16 -27 19 -37 8z"/>
<path d="M3000 3099 c0 -6 7 -17 15 -26 12 -11 13 -18 4 -29 -6 -7 -9 -19 -6
-26 4 -8 6 -7 6 5 1 9 6 17 11 17 6 0 10 11 10 25 0 14 -5 25 -11 25 -5 0 -7
5 -4 10 3 6 -1 10 -9 10 -9 0 -16 -5 -16 -11z"/>
<path d="M1730 3060 c-19 -4 -46 -10 -59 -14 -16 -6 -21 -5 -17 3 4 6 0 11
-10 11 -13 0 -14 -3 -5 -14 9 -10 25 -13 56 -10 36 4 44 2 48 -13 3 -14 6 -12
16 11 6 16 10 30 9 31 -2 1 -19 -2 -38 -5z"/>
<path d="M3152 3040 c7 -10 14 -18 15 -16 6 6 -9 36 -18 36 -5 0 -4 -9 3 -20z"/>
<path d="M1807 3037 c-7 -19 4 -33 31 -39 27 -7 27 0 3 30 -22 26 -27 27 -34
9z"/>
<path d="M2973 3011 c1 -11 7 -23 14 -26 11 -4 11 0 2 18 -16 31 -18 32 -16 8z"/>
<path d="M1660 3016 c0 -8 51 -13 56 -5 3 5 -9 9 -25 9 -17 0 -31 -2 -31 -4z"/>
<path d="M3195 3003 c4 -10 10 -28 12 -40 3 -13 9 -23 14 -23 5 0 9 2 9 4 0
11 -31 76 -36 76 -3 0 -3 -8 1 -17z"/>
<path d="M2880 2980 c0 -6 7 -10 15 -10 8 0 15 2 15 4 0 2 -7 6 -15 10 -8 3
-15 1 -15 -4z"/>
<path d="M2941 2944 c0 -11 3 -14 6 -6 3 7 2 16 -1 19 -3 4 -6 -2 -5 -13z"/>
<path d="M1920 2920 c21 -39 97 -112 105 -100 4 7 -15 33 -49 66 -59 58 -73
66 -56 34z"/>
<path d="M2367 2848 c-25 -51 -57 -122 -72 -157 -25 -61 -91 -175 -125 -216
-9 -11 -28 -44 -44 -73 -26 -49 -27 -55 -16 -108 6 -30 11 -90 10 -132 -1 -42
-1 -81 0 -87 1 -5 2 -14 1 -18 -1 -5 10 -18 24 -29 14 -11 23 -24 19 -29 -3
-6 15 -31 41 -56 25 -26 44 -52 41 -60 -6 -15 10 -18 19 -3 9 15 27 1 21 -16
-3 -8 0 -13 7 -11 25 4 -8 -103 -38 -125 -6 -5 -5 -8 2 -8 7 0 20 11 29 25 18
28 34 33 34 10 0 -8 5 -15 10 -15 6 0 10 5 10 12 0 9 3 9 11 1 9 -9 7 -25 -6
-65 -9 -29 -22 -59 -28 -66 -6 -8 -12 -23 -14 -35 -3 -18 -1 -17 17 6 11 14
28 43 37 64 16 36 17 36 21 13 2 -14 10 -48 17 -76 15 -58 5 -105 -30 -144
-23 -25 -14 -36 14 -18 18 11 23 11 31 -2 7 -11 11 -9 19 13 17 43 13 159 -10
297 -46 289 -50 328 -39 438 10 97 37 248 60 333 17 64 14 286 -5 359 -9 36
-18 66 -19 68 -2 1 -24 -39 -49 -90z m-4 -135 c-7 -2 -21 -2 -30 0 -10 3 -4 5
12 5 17 0 24 -2 18 -5z m-23 -913 c0 -5 -7 -10 -15 -10 -8 0 -15 5 -15 10 0 6
7 10 15 10 8 0 15 -4 15 -10z"/>
<path d="M2972 2910 c0 -14 2 -19 5 -12 2 6 2 18 0 25 -3 6 -5 1 -5 -13z"/>
<path d="M3217 2924 c-8 -8 1 -24 14 -24 5 0 9 7 9 15 0 15 -12 20 -23 9z"/>
<path d="M3180 2900 c0 -5 5 -10 11 -10 5 0 7 5 4 10 -3 6 -8 10 -11 10 -2 0
-4 -4 -4 -10z"/>
<path d="M1900 2881 c0 -6 6 -11 13 -11 9 0 8 -3 -2 -9 -7 -5 -10 -14 -7 -20
4 -6 2 -11 -3 -11 -6 0 -11 -4 -11 -8 0 -5 21 -9 48 -10 43 -1 45 0 28 13 -10
8 -24 24 -30 36 -12 24 -36 37 -36 20z"/>
<path d="M2930 2861 c0 -6 5 -13 10 -16 6 -3 10 1 10 9 0 9 -4 16 -10 16 -5 0
-10 -4 -10 -9z"/>
<path d="M3195 2860 c3 -5 8 -10 11 -10 2 0 4 5 4 10 0 6 -5 10 -11 10 -5 0
-7 -4 -4 -10z"/>
<path d="M2970 2839 c0 -5 5 -7 10 -4 6 3 10 8 10 11 0 2 -4 4 -10 4 -5 0 -10
-5 -10 -11z"/>
<path d="M2030 2793 c-17 -12 -25 -13 -28 -5 -6 19 -32 14 -32 -5 0 -14 2 -15
9 -5 10 17 21 -6 21 -47 0 -17 5 -28 14 -28 9 0 14 9 13 25 -1 14 4 27 11 29
7 3 12 -4 12 -17 0 -12 5 -18 10 -15 7 4 7 12 0 25 -15 28 6 35 24 8 9 -12 17
-20 20 -17 2 2 -8 19 -23 36 -26 32 -28 32 -51 16z"/>
<path d="M1889 2798 c-1 -2 -3 -13 -4 -25 -2 -17 3 -23 17 -23 16 0 19 -5 14
-23 -4 -17 -1 -24 9 -24 11 0 15 13 15 49 0 45 -2 48 -25 48 -14 0 -26 -1 -26
-2z"/>
<path d="M2100 2785 c12 -15 30 -12 30 6 0 5 -10 9 -21 9 -18 0 -19 -2 -9 -15z"/>
<path d="M2970 2785 c-8 -9 -8 -15 -2 -15 12 0 26 19 19 26 -2 2 -10 -2 -17
-11z"/>
<path d="M2971 2744 c0 -11 3 -14 6 -6 3 7 2 16 -1 19 -3 4 -6 -2 -5 -13z"/>
<path d="M350 2730 c36 -12 60 -12 60 0 0 6 -19 10 -42 9 -37 -1 -39 -2 -18
-9z"/>
<path d="M3554 2721 c-52 -31 -67 -109 -38 -186 5 -13 4 -16 -4 -11 -7 4 -12
2 -12 -4 0 -6 -5 -8 -10 -5 -6 3 -13 -1 -16 -9 -3 -9 -15 -16 -25 -16 -12 0
-19 -7 -19 -18 0 -31 12 -33 33 -6 l19 25 20 -20 c11 -12 31 -21 48 -21 34 0
37 6 13 32 -16 17 -15 17 18 1 42 -22 109 -22 142 0 58 38 72 134 27 197 -41
57 -136 77 -196 41z m116 -27 l25 -15 -25 7 c-24 6 -24 6 -7 -13 9 -11 17 -27
17 -36 0 -24 17 -21 25 4 7 21 7 21 21 1 19 -28 21 -65 5 -96 -10 -19 -24 -27
-55 -31 -57 -7 -71 -3 -106 30 -78 75 8 204 100 149z"/>
<path d="M3670 2585 c0 -15 4 -24 10 -20 6 3 10 12 10 20 0 8 -4 17 -10 20 -6
4 -10 -5 -10 -20z"/>
<path d="M3615 2590 c-3 -5 -2 -10 4 -10 5 0 13 5 16 10 3 6 2 10 -4 10 -5 0
-13 -4 -16 -10z"/>
<path d="M1875 2710 c3 -5 8 -10 11 -10 2 0 4 5 4 10 0 6 -5 10 -11 10 -5 0
-7 -4 -4 -10z"/>
<path d="M1380 2685 c0 -13 8 -29 18 -34 16 -10 16 -10 -1 -11 -14 0 -16 -5
-11 -27 8 -33 24 -46 40 -32 8 7 14 6 19 0 4 -7 18 -6 43 5 52 21 58 31 17 26
-27 -3 -35 0 -35 11 0 9 -8 18 -17 20 -17 4 -17 5 0 6 12 1 17 10 17 31 0 29
-2 30 -45 30 -41 0 -45 -2 -45 -25z"/>
<path d="M2969 2699 c-1 -8 -1 -35 1 -62 1 -35 -2 -46 -12 -44 -7 2 -10 2 -5
0 4 -3 7 -11 7 -19 0 -8 6 -14 13 -14 9 0 12 19 10 71 -2 63 -11 106 -14 68z"/>
<path d="M2021 2664 c0 -11 3 -14 6 -6 3 7 2 16 -1 19 -3 4 -6 -2 -5 -13z"/>
<path d="M3402 2650 c-14 -22 -16 -50 -4 -50 4 0 16 14 26 31 11 18 14 29 8
25 -6 -3 -12 -2 -14 4 -2 6 -9 1 -16 -10z"/>
<path d="M373 2638 c4 -10 3 -18 -2 -18 -5 0 -14 -13 -21 -29 -12 -30 -7 -51
11 -51 6 0 7 5 4 10 -3 6 -1 10 5 10 6 0 8 5 5 10 -3 6 -2 10 3 10 18 0 22 44
5 60 -14 13 -15 13 -10 -2z"/>
<path d="M1914 2624 c4 -12 2 -12 -14 -4 -14 8 -25 7 -40 -2 -16 -10 -24 -10
-41 0 -12 8 -18 9 -15 3 4 -6 -32 -9 -103 -8 -108 2 -109 2 -154 -31 -26 -18
-61 -39 -79 -47 -42 -18 -17 -19 50 -1 31 8 55 9 58 4 9 -14 1 -18 -70 -35
-62 -14 -81 -26 -55 -35 11 -4 12 -79 6 -203 -2 -28 0 -30 53 -38 30 -5 127
-6 215 -2 265 9 249 8 253 30 2 11 22 96 44 188 44 184 44 192 -15 181 -16 -2
-44 0 -64 5 -29 8 -34 7 -29 -5z"/>
<path d="M2972 2521 c-10 -6 -9 -10 7 -14 14 -3 21 0 21 9 0 16 -9 18 -28 5z"/>
<path d="M1368 2513 c7 -3 16 -2 19 1 4 3 -2 6 -13 5 -11 0 -14 -3 -6 -6z"/>
<path d="M1378 2473 c7 -3 16 -2 19 1 4 3 -2 6 -13 5 -11 0 -14 -3 -6 -6z"/>
<path d="M2787 2424 c-3 -3 -3 -13 0 -21 5 -12 7 -12 14 -1 15 23 4 40 -14 22z"/>
<path d="M2946 2421 c-4 -7 -5 -15 -2 -18 9 -9 19 4 14 18 -4 11 -6 11 -12 0z"/>
<path d="M2990 2417 c0 -8 7 -14 15 -14 8 0 15 6 15 14 0 7 -7 13 -15 13 -8 0
-15 -6 -15 -13z"/>
<path d="M1030 2355 c0 -8 7 -15 16 -15 14 0 14 3 4 15 -7 8 -14 15 -16 15 -2
0 -4 -7 -4 -15z"/>
<path d="M2827 2266 c-8 -8 -17 -12 -21 -9 -3 4 -6 -1 -6 -10 0 -9 -7 -17 -15
-17 -20 0 -20 -56 0 -64 9 -3 25 4 36 15 20 20 20 21 2 35 -17 13 -17 15 7 33
14 11 22 22 19 26 -4 3 -13 -1 -22 -9z"/>
<path d="M1864 2145 c-18 -15 -18 -15 5 -13 14 2 26 9 29 16 5 17 -10 15 -34
-3z"/>
<path d="M2776 2148 c3 -5 -5 -20 -19 -34 -18 -18 -27 -21 -30 -12 -3 7 -6 4
-6 -7 -1 -18 -2 -18 -14 4 -6 13 -16 23 -21 22 -5 -2 -13 3 -18 11 -8 10 -9
10 -5 -2 2 -8 10 -14 16 -12 15 3 14 -6 -1 -22 -18 -17 -48 -27 -48 -17 0 5
-8 8 -17 6 -10 -2 -21 -4 -25 -4 -5 -1 -8 -17 -8 -37 0 -34 1 -35 34 -33 19 2
38 0 42 -4 4 -4 16 -7 26 -7 10 0 18 -7 18 -15 0 -17 -16 -21 -22 -5 -2 6 -26
13 -53 16 l-50 6 -3 -182 -2 -181 45 4 c25 2 45 0 45 -5 0 -4 -7 -8 -16 -8 -8
0 -12 -4 -9 -10 8 -13 -1 -13 -26 0 -13 8 -19 7 -19 0 0 -6 -5 -8 -10 -5 -7 4
-9 -3 -5 -22 11 -49 14 -53 30 -47 11 4 15 0 16 -17 0 -18 4 -14 14 16 13 38
14 38 7 5 -4 -19 -6 -98 -4 -175 3 -124 0 -156 -27 -279 -16 -77 -27 -144 -24
-148 6 -11 33 10 33 26 1 13 35 56 45 56 3 0 3 -10 0 -21 -5 -14 -3 -19 3 -15
6 3 14 1 18 -5 4 -8 3 -9 -4 -5 -7 4 -12 3 -12 -3 0 -6 -7 -8 -15 -5 -9 4 -15
0 -15 -10 0 -13 7 -15 36 -10 35 5 36 5 30 -20 -5 -20 -3 -26 11 -27 92 -6 95
-5 71 19 -16 16 -2 28 16 13 19 -16 39 -4 31 18 -5 13 -4 14 6 3 36 -35 37 -8
4 121 -32 130 -39 216 -26 312 9 66 9 89 -3 130 -9 28 -16 68 -17 90 -1 22 -5
65 -9 95 -5 30 -11 87 -14 125 -3 39 -12 103 -20 143 -14 76 -8 97 18 60 13
-19 16 -20 16 -5 0 10 7 20 16 24 8 3 14 15 13 27 -1 11 1 29 5 38 11 24 1 36
-29 36 -13 0 -22 -5 -19 -10z m-70 -104 c-4 -9 -9 -15 -11 -12 -3 3 -3 13 1
22 4 9 9 15 11 12 3 -3 3 -13 -1 -22z m-46 -1 c0 -18 -27 -16 -33 1 -4 10 0
14 14 13 10 -1 19 -7 19 -14z m30 -109 c0 -8 -4 -12 -10 -9 -5 3 -10 10 -10
16 0 5 5 9 10 9 6 0 10 -7 10 -16z m-43 0 c-3 -3 -12 -4 -19 -1 -8 3 -5 6 6 6
11 1 17 -2 13 -5z m29 -61 c-11 -11 -19 6 -11 24 8 17 8 17 12 0 3 -10 2 -21
-1 -24z m-33 20 c-7 -2 -19 -2 -25 0 -7 3 -2 5 12 5 14 0 19 -2 13 -5z m17
-38 c19 6 20 -1 11 -57 -1 -9 -37 -5 -47 5 -4 4 0 7 8 7 9 0 18 7 22 15 3 8 1
15 -4 15 -6 0 -10 -6 -11 -12 0 -10 -2 -10 -6 0 -2 6 -8 10 -12 8 -4 -3 -13
-1 -21 5 -12 7 -10 9 8 9 14 0 22 6 23 18 1 16 2 16 6 -1 3 -12 11 -16 23 -12z
m0 -85 c13 -9 13 -11 0 -20 -8 -5 -19 -9 -25 -9 -5 0 -4 3 3 6 10 4 10 8 1 19
-13 16 -1 18 21 4z m3 -63 c-7 -13 -10 -13 -23 1 -13 14 -12 15 3 9 10 -4 17
-2 17 5 0 6 3 9 6 5 3 -3 2 -12 -3 -20z m-23 -27 c0 -11 -4 -20 -9 -20 -7 0
-8 17 -2 38 4 10 11 -2 11 -18z m-10 -100 c0 -5 -7 -10 -15 -10 -8 0 -15 5
-15 10 0 6 7 10 15 10 8 0 15 -4 15 -10z m95 -540 c-4 -7 2 -9 19 -4 29 7 31
2 15 -27 -8 -15 -7 -25 2 -37 11 -14 11 -15 -1 -4 -8 6 -22 12 -31 12 -9 0
-22 7 -29 15 -10 13 -10 19 5 35 19 21 30 27 20 10z m85 -45 c13 -16 3 -20
-24 -9 -9 3 -13 10 -10 15 8 13 20 11 34 -6z"/>
<path d="M1933 2076 c-31 -20 -42 -36 -25 -36 12 0 67 48 62 53 -3 2 -19 -6
-37 -17z"/>
<path d="M1975 2035 c1 -22 11 -59 24 -83 14 -28 20 -51 15 -65 -6 -18 -4 -20
7 -10 12 10 17 8 27 -8 7 -11 10 -25 6 -31 -4 -7 -3 -8 4 -4 7 4 12 2 12 -3 0
-6 -6 -11 -12 -11 -9 0 -8 -3 2 -10 12 -7 11 -12 -5 -31 l-20 -22 23 12 c12 6
22 16 22 21 0 6 4 10 8 10 4 0 9 -15 10 -34 2 -28 -3 -38 -28 -56 -17 -12 -38
-36 -47 -53 -17 -33 -24 -97 -10 -97 4 0 7 -4 7 -10 0 -28 -30 -4 -54 44 -15
30 -38 69 -52 87 -13 18 -24 39 -24 47 0 25 -70 160 -96 184 -13 13 -24 28
-24 35 0 13 -40 39 -40 26 0 -4 -10 7 -21 25 -20 31 -42 41 -53 23 -3 -5 2
-19 12 -32 10 -13 42 -67 72 -119 29 -52 60 -106 70 -120 21 -31 50 -116 50
-147 0 -13 -9 -42 -21 -65 -15 -29 -19 -52 -15 -76 3 -19 3 -33 1 -31 -7 7
-131 231 -163 294 -37 73 -57 97 -104 123 -25 14 -39 17 -46 10 -13 -13 1 -54
29 -84 11 -12 22 -38 24 -58 2 -20 10 -47 18 -59 7 -12 17 -40 21 -62 4 -22
12 -46 18 -53 6 -7 8 -32 4 -60 -4 -35 -2 -54 10 -72 40 -64 -70 69 -120 144
-31 47 -75 100 -98 118 -22 18 -54 45 -69 61 l-27 27 -21 -26 c-12 -15 -53
-61 -91 -103 -38 -42 -80 -90 -92 -108 -13 -17 -67 -85 -121 -150 -91 -109
-96 -118 -74 -121 14 -2 42 4 62 12 20 9 41 13 46 10 5 -3 9 -70 9 -149 l0
-145 -46 -102 c-79 -177 -124 -302 -93 -258 8 12 9 10 4 -9 -5 -18 -4 -22 6
-16 9 6 11 4 6 -8 -4 -11 -2 -14 9 -10 8 3 26 -7 44 -25 15 -17 37 -32 47 -34
10 -2 17 -10 15 -16 -1 -7 2 -12 8 -12 5 0 10 7 10 15 0 8 7 15 15 15 8 0 15
5 15 10 0 6 7 10 15 10 8 0 15 5 15 10 0 6 7 10 15 10 9 0 15 -9 15 -21 0 -17
5 -20 25 -17 32 7 32 2 -2 -15 -16 -8 -43 -13 -61 -12 -32 2 -34 0 -28 -27 5
-23 2 -28 -15 -28 -12 0 -23 8 -26 20 -5 20 -13 24 -43 21 -9 -1 -36 25 -60
58 -25 33 -48 60 -52 61 -8 0 -65 -120 -74 -157 -5 -19 0 -23 38 -33 23 -6 48
-12 53 -14 6 -2 -5 -6 -22 -10 -74 -17 -31 -39 99 -52 l66 -7 -18 -51 c-10
-28 -29 -80 -43 -116 -13 -36 -27 -86 -31 -113 l-7 -47 259 0 c238 0 260 1
275 18 10 10 15 21 12 24 -3 3 1 25 9 49 8 24 16 55 19 69 2 14 5 -17 6 -67 1
-71 4 -93 15 -93 11 0 13 21 10 102 -2 57 -4 105 -4 108 0 3 -21 5 -48 5 -36
1 -52 -5 -70 -22 -32 -32 -42 -29 -42 12 0 19 4 35 9 35 5 0 12 11 15 25 8 31
33 33 39 2 4 -20 4 -20 6 4 2 46 20 58 74 50 26 -4 50 -11 54 -14 3 -4 -4 -19
-18 -33 -24 -25 -24 -26 -5 -40 11 -8 28 -12 37 -9 10 3 52 -6 94 -20 41 -14
82 -25 89 -25 8 0 45 -14 82 -31 38 -17 84 -37 102 -45 l33 -14 -18 -27 c-13
-20 -14 -28 -5 -31 10 -3 10 -7 1 -18 -10 -12 7 -14 110 -14 67 0 120 4 117 8
-3 5 -24 22 -48 38 -82 55 -159 129 -188 180 -15 28 -45 66 -64 85 -24 22 -34
39 -30 51 5 16 -2 18 -63 20 -37 1 -77 2 -88 3 -11 1 -173 3 -359 4 -187 0
-337 3 -334 6 3 3 238 7 521 8 376 1 519 5 528 14 18 18 24 99 8 101 -8 1 -38
4 -66 8 -35 4 -58 3 -67 -5 -11 -10 -16 -8 -21 8 -7 23 -28 26 -87 12 -30 -7
-38 -6 -38 5 0 9 -11 14 -29 14 -38 0 -49 18 -22 36 12 8 21 22 21 30 0 8 4
14 10 14 5 0 12 11 16 25 6 26 33 37 120 51 28 4 45 13 53 28 16 30 18 89 3
94 -6 2 -12 8 -12 12 0 11 -2 11 178 10 51 -1 97 2 104 6 6 4 45 8 87 9 118 3
121 4 121 81 0 35 -7 106 -15 157 -8 50 -15 108 -16 127 -2 56 -8 68 -28 63
-25 -6 -84 68 -105 135 -10 28 -17 78 -17 110 0 32 -7 71 -15 87 -8 15 -12 30
-10 33 3 2 -7 15 -21 28 -20 18 -22 24 -9 24 9 0 16 3 16 8 -1 14 -48 60 -69
67 -13 4 -20 9 -17 12 3 3 -12 28 -33 57 -21 28 -41 63 -45 78 -3 15 -21 43
-39 61 -17 18 -37 42 -43 52 -9 16 -10 13 -9 -20z m95 -680 c0 -8 0 -16 0 -17
0 -2 11 -38 24 -80 13 -43 20 -76 16 -73 -5 3 -18 38 -30 78 -32 107 -32 107
-21 107 6 0 11 -7 11 -15z m-830 -43 c0 -19 -51 -240 -66 -283 -13 -42 -18
-47 -52 -52 -20 -4 -40 -3 -45 2 -11 11 35 152 61 188 11 16 34 56 51 91 27
54 51 79 51 54z m966 -177 l31 0 2 -77 2 -78 -282 0 c-256 0 -281 1 -275 16 4
9 11 37 18 63 6 25 12 47 14 49 1 2 15 -3 31 -11 15 -8 34 -12 41 -10 8 3 12
-8 12 -38 0 -45 16 -44 22 1 3 26 38 42 38 18 0 -7 9 -22 21 -31 20 -18 21
-18 35 0 7 10 14 24 14 31 0 6 5 12 11 12 6 0 8 -9 4 -20 -5 -14 -2 -20 9 -20
9 0 16 7 16 16 0 9 9 18 20 21 12 3 19 12 18 22 -2 10 5 17 20 19 16 3 22 -2
22 -17 0 -26 20 -38 34 -20 6 8 20 19 31 25 11 7 19 19 19 28 -2 13 3 15 20 9
11 -4 35 -8 52 -8z m-426 -36 c0 -6 -4 -7 -10 -4 -5 3 -10 11 -10 16 0 6 5 7
10 4 6 -3 10 -11 10 -16z m197 15 c-3 -3 -12 -4 -19 -1 -8 3 -5 6 6 6 11 1 17
-2 13 -5z m-427 -64 c15 -16 24 -30 20 -30 -4 0 -6 -9 -3 -20 5 -18 0 -20 -52
-20 -54 0 -56 1 -49 22 7 22 44 78 52 78 2 0 17 -13 32 -30z m75 0 c3 -5 1
-10 -4 -10 -6 0 -11 5 -11 10 0 6 2 10 4 10 3 0 8 -4 11 -10z m3 -45 c1 -14
-3 -25 -8 -25 -6 0 -10 11 -10 25 0 14 4 25 8 25 4 0 9 -11 10 -25z m-588
-575 c0 -5 -4 -10 -10 -10 -5 0 -10 5 -10 10 0 6 5 10 10 10 6 0 10 -4 10 -10z
m997 -356 c-3 -3 -12 -4 -19 -1 -8 3 -5 6 6 6 11 1 17 -2 13 -5z"/>
<path d="M1960 1969 c0 -5 5 -7 10 -4 6 3 10 8 10 11 0 2 -4 4 -10 4 -5 0 -10
-5 -10 -11z"/>
<path d="M2963 1458 c1 -28 11 -36 22 -18 3 6 2 10 -4 10 -5 0 -12 8 -14 18
-3 9 -4 5 -4 -10z"/>
<path d="M2556 1429 c-10 -51 -7 -79 8 -79 20 0 27 48 7 53 -13 4 -13 5 2 6
20 1 23 24 3 40 -11 9 -15 5 -20 -20z"/>
<path d="M2600 1430 c0 -5 5 -10 11 -10 5 0 7 5 4 10 -3 6 -8 10 -11 10 -2 0
-4 -4 -4 -10z"/>
<path d="M2990 1420 c0 -5 5 -10 11 -10 5 0 7 5 4 10 -3 6 -8 10 -11 10 -2 0
-4 -4 -4 -10z"/>
<path d="M2590 1372 c0 -5 7 -15 15 -22 8 -7 15 -9 15 -6 0 4 -7 14 -15 22 -8
9 -15 11 -15 6z"/>
<path d="M2550 1320 c0 -11 7 -20 15 -20 8 0 15 9 15 20 0 11 -7 20 -15 20 -8
0 -15 -9 -15 -20z"/>
<path d="M2600 1320 c0 -5 5 -10 10 -10 6 0 10 5 10 10 0 6 -4 10 -10 10 -5 0
-10 -4 -10 -10z"/>
<path d="M2550 1256 c0 -2 7 -7 16 -10 8 -3 12 -2 9 4 -6 10 -25 14 -25 6z"/>
<path d="M2601 1214 c0 -11 3 -14 6 -6 3 7 2 16 -1 19 -3 4 -6 -2 -5 -13z"/>
<path d="M3071 969 c-21 -17 -22 -22 -10 -29 9 -6 15 -5 18 3 2 7 8 15 14 18
5 4 8 11 6 17 -2 6 -15 2 -28 -9z"/>
<path d="M3016 955 c3 -11 13 -27 21 -35 13 -13 13 -12 2 13 -11 24 -10 30 1
37 11 7 9 9 -8 7 -17 -1 -21 -6 -16 -22z"/>
<path d="M4471 730 c0 -8 4 -24 9 -35 5 -13 9 -14 9 -5 0 8 -4 24 -9 35 -5 13
-9 14 -9 5z"/>
<path d="M2120 432 c0 -19 66 -25 203 -19 73 4 147 7 166 7 19 0 32 2 29 5 -3
3 -93 8 -201 12 -141 4 -197 3 -197 -5z"/>
<path d="M2585 429 c-29 -3 18 -7 109 -7 88 -1 157 1 153 4 -8 8 -199 10 -262
3z"/>
</g>
</svg>
